<svg xmlns="http://www.w3.org/2000/svg" width="720" height="720" viewBox="0 0 720 720"><rect width="720" height="720" fill="#0e2a47"></rect><defs><path d="M-1 0 a1 1 0 1 0 2 0 a1 1 0 1 0 -2 0z" id="p1110"></path><path d="M-3 0 a3 3 0 1 0 6 0 a3 3 0 1 0 -6 0z" id="p1107"></path><path d="M-5 0 a5 5 0 1 0 10 0 a5 5 0 1 0 -10 0z" id="p1109"></path><path d="M2 -2 L-2 2z" id="p1108"></path><path d="M6 -6 L-6 6z" id="p1106"></path><path d="M30 -30 L-30 30z" id="p1111"></path></defs><g stroke="#1c538e" fill="none"><use href="#p1106" x="30" y="30"></use><use href="#p1107" x="30" y="90"></use><use href="#p1106" x="30" y="150"></use><use href="#p1106" x="30" y="210"></use><use href="#p1106" x="30" y="270"></use><use href="#p1108" x="30" y="330"></use><use href="#p1109" x="30" y="390"></use><use href="#p1106" x="30" y="450"></use><use href="#p1108" x="30" y="510"></use><use href="#p1110" x="30" y="570"></use><use href="#p1109" x="30" y="630"></use><use href="#p1109" x="30" y="690"></use><use href="#p1107" x="90" y="30"></use><use href="#p1109" x="90" y="90"></use><use href="#p1109" x="90" y="150"></use><use href="#p1110" x="90" y="210"></use><use href="#p1110" x="90" y="270"></use><use href="#p1109" x="90" y="330"></use><use href="#p1106" x="90" y="390"></use><use href="#p1108" x="90" y="450"></use><use href="#p1109" x="90" y="510"></use><use href="#p1109" x="90" y="570"></use><use href="#p1106" x="90" y="630"></use><use href="#p1106" x="90" y="690"></use><use href="#p1106" x="150" y="30"></use><use href="#p1109" x="150" y="90"></use><use href="#p1106" x="150" y="150"></use><use href="#p1106" x="150" y="210"></use><use href="#p1110" x="150" y="270"></use><use href="#p1108" x="150" y="330"></use><use href="#p1109" x="150" y="390"></use><use href="#p1106" x="150" y="450"></use><use href="#p1108" x="150" y="510"></use><use href="#p1109" x="150" y="570"></use><use href="#p1109" x="150" y="630"></use><use href="#p1107" x="150" y="690"></use><use href="#p1111" x="210" y="30" stroke-width="3"></use><use href="#p1111" x="210" y="90" stroke-width="3"></use><use href="#p1109" x="210" y="150"></use><use href="#p1110" x="210" y="210"></use><use href="#p1109" x="210" y="270"></use><use href="#p1109" x="210" y="330"></use><use href="#p1109" x="210" y="390"></use><use href="#p1106" x="210" y="450"></use><use href="#p1109" x="210" y="510"></use><use href="#p1109" x="210" y="570"></use><use href="#p1110" x="210" y="630"></use><use href="#p1106" x="210" y="690"></use><use href="#p1108" x="270" y="30"></use><use href="#p1109" x="270" y="90"></use><use href="#p1108" x="270" y="150"></use><use href="#p1110" x="270" y="210"></use><use href="#p1109" x="270" y="270"></use><use href="#p1110" x="270" y="330"></use><use href="#p1110" x="270" y="390"></use><use href="#p1111" x="270" y="450" stroke-width="3"></use><use href="#p1106" x="270" y="510"></use><use href="#p1109" x="270" y="570"></use><use href="#p1109" x="270" y="630"></use><use href="#p1107" x="270" y="690"></use><use href="#p1110" x="330" y="30"></use><use href="#p1107" x="330" y="90"></use><use href="#p1106" x="330" y="150"></use><use href="#p1106" x="330" y="210"></use><use href="#p1109" x="330" y="270"></use><use href="#p1110" x="330" y="330"></use><use href="#p1107" x="330" y="390"></use><use href="#p1107" x="330" y="450"></use><use href="#p1108" x="330" y="510"></use><use href="#p1110" x="330" y="570"></use><use href="#p1110" x="330" y="630"></use><use href="#p1106" x="330" y="690"></use><use href="#p1109" x="390" y="30"></use><use href="#p1107" x="390" y="90"></use><use href="#p1109" x="390" y="150"></use><use href="#p1109" x="390" y="210"></use><use href="#p1108" x="390" y="270"></use><use href="#p1107" x="390" y="330"></use><use href="#p1108" x="390" y="390"></use><use href="#p1108" x="390" y="450"></use><use href="#p1108" x="390" y="510"></use><use href="#p1110" x="390" y="570"></use><use href="#p1107" x="390" y="630"></use><use href="#p1107" x="390" y="690"></use><use href="#p1110" x="450" y="30"></use><use href="#p1106" x="450" y="90"></use><use href="#p1106" x="450" y="150"></use><use href="#p1110" x="450" y="210"></use><use href="#p1108" x="450" y="270"></use><use href="#p1106" x="450" y="330"></use><use href="#p1108" x="450" y="390"></use><use href="#p1106" x="450" y="450"></use><use href="#p1109" x="450" y="510"></use><use href="#p1106" x="450" y="570"></use><use href="#p1106" x="450" y="630"></use><use href="#p1109" x="450" y="690"></use><use href="#p1110" x="510" y="30"></use><use href="#p1110" x="510" y="90"></use><use href="#p1106" x="510" y="150"></use><use href="#p1106" x="510" y="210"></use><use href="#p1109" x="510" y="270"></use><use href="#p1108" x="510" y="330"></use><use href="#p1106" x="510" y="390"></use><use href="#p1107" x="510" y="450"></use><use href="#p1106" x="510" y="510"></use><use href="#p1106" x="510" y="570"></use><use href="#p1106" x="510" y="630"></use><use href="#p1111" x="510" y="690" stroke-width="3"></use><use href="#p1108" x="570" y="30"></use><use href="#p1106" x="570" y="90"></use><use href="#p1109" x="570" y="150"></use><use href="#p1106" x="570" y="210"></use><use href="#p1106" x="570" y="270"></use><use href="#p1108" x="570" y="330"></use><use href="#p1106" x="570" y="390"></use><use href="#p1108" x="570" y="450"></use><use href="#p1111" x="570" y="510" stroke-width="3"></use><use href="#p1109" x="570" y="570"></use><use href="#p1107" x="570" y="630"></use><use href="#p1108" x="570" y="690"></use><use href="#p1108" x="630" y="30"></use><use href="#p1108" x="630" y="90"></use><use href="#p1108" x="630" y="150"></use><use href="#p1106" x="630" y="210"></use><use href="#p1109" x="630" y="270"></use><use href="#p1106" x="630" y="330"></use><use href="#p1106" x="630" y="390"></use><use href="#p1106" x="630" y="450"></use><use href="#p1110" x="630" y="510"></use><use href="#p1109" x="630" y="570"></use><use href="#p1110" x="630" y="630"></use><use href="#p1106" x="630" y="690"></use><use href="#p1106" x="690" y="30"></use><use href="#p1106" x="690" y="90"></use><use href="#p1109" x="690" y="150"></use><use href="#p1111" x="690" y="210" stroke-width="3"></use><use href="#p1110" x="690" y="270"></use><use href="#p1109" x="690" y="330"></use><use href="#p1106" x="690" y="390"></use><use href="#p1106" x="690" y="450"></use><use href="#p1106" x="690" y="510"></use><use href="#p1106" x="690" y="570"></use><use href="#p1106" x="690" y="630"></use><use href="#p1106" x="690" y="690"></use></g></svg>
