<svg width="62" height="46" viewBox="0 0 62 46" fill="none" xmlns="http://www.w3.org/2000/svg">
<path d="M0 7.66667C0 5.63334 0.807736 3.68329 2.24551 2.24551C3.68329 0.807735 5.63334 0 7.66667 0H53.6667C55.7 0 57.65 0.807735 59.0878 2.24551C60.5256 3.68329 61.3333 5.63334 61.3333 7.66667V38.3333C61.3333 40.3667 60.5256 42.3167 59.0878 43.7545C57.65 45.1923 55.7 46 53.6667 46H7.66667C5.63334 46 3.68329 45.1923 2.24551 43.7545C0.807736 42.3167 0 40.3667 0 38.3333V7.66667ZM7.66667 3.83333C6.65 3.83333 5.67498 4.2372 4.95609 4.95609C4.2372 5.67498 3.83333 6.65 3.83333 7.66667V8.4985L30.6667 24.5985L57.5 8.4985V7.66667C57.5 6.65 57.0961 5.67498 56.3772 4.95609C55.6584 4.2372 54.6833 3.83333 53.6667 3.83333H7.66667ZM57.5 12.9682L39.4527 23.7973L57.5 34.9025V12.9682ZM57.3697 39.3262L35.7497 26.0207L30.6667 29.0682L25.5837 26.0207L3.96367 39.3223C4.1815 40.1381 4.66255 40.859 5.33213 41.3734C6.00171 41.8877 6.82236 42.1665 7.66667 42.1667H53.6667C54.5105 42.1668 55.3307 41.8885 56.0003 41.3749C56.6698 40.8613 57.1511 40.1412 57.3697 39.3262ZM3.83333 34.9025L21.8807 23.7973L3.83333 12.9682V34.9025Z" fill="#FAF8F8"/>
</svg>
