<svg width="55" height="60" viewBox="0 0 55 60" fill="none" xmlns="http://www.w3.org/2000/svg">
<path d="M28.9977 0.629505C28.8012 0.429961 28.5678 0.271644 28.3108 0.163623C28.0538 0.0556027 27.7782 0 27.5 0C27.2218 0 26.9462 0.0556027 26.6892 0.163623C26.4322 0.271644 26.1988 0.429961 26.0023 0.629505L0.617696 26.3421C0.42138 26.5415 0.265781 26.7781 0.159793 27.0384C0.0538046 27.2987 -0.000493095 27.5776 3.37402e-06 27.8592V57.8573C3.37402e-06 58.4256 0.222874 58.9706 0.619585 59.3724C1.0163 59.7743 1.55435 60 2.11539 60H21.1538C21.7149 60 22.2529 59.7743 22.6496 59.3724C23.0464 58.9706 23.2692 58.4256 23.2692 57.8573V40.7155H31.7308V57.8573C31.7308 58.4256 31.9536 58.9706 32.3503 59.3724C32.7471 59.7743 33.2851 60 33.8462 60H52.8846C53.4456 60 53.9837 59.7743 54.3804 59.3724C54.7771 58.9706 55 58.4256 55 57.8573V27.8592C55.0005 27.5776 54.9462 27.2987 54.8402 27.0384C54.7342 26.7781 54.5786 26.5415 54.3823 26.3421L48.6538 20.5439V6.43199C48.6538 5.86371 48.431 5.3187 48.0343 4.91686C47.6376 4.51502 47.0995 4.28927 46.5385 4.28927H42.3077C41.7467 4.28927 41.2086 4.51502 40.8119 4.91686C40.4152 5.3187 40.1923 5.86371 40.1923 6.43199V11.9731L28.9977 0.629505ZM4.23077 55.7146V28.7463L27.5 5.17636L50.7692 28.7463V55.7146H35.9615V38.5728C35.9615 38.0045 35.7387 37.4595 35.342 37.0577C34.9452 36.6558 34.4072 36.4301 33.8462 36.4301H21.1538C20.5928 36.4301 20.0548 36.6558 19.658 37.0577C19.2613 37.4595 19.0385 38.0045 19.0385 38.5728V55.7146H4.23077Z" fill="#FAF8F8"/>
</svg>
