<svg width="29" height="29" viewBox="0 0 29 29" fill="none" xmlns="http://www.w3.org/2000/svg">
<path d="M0.354322 2.06514C0.241988 1.95281 0.15288 1.81945 0.0920855 1.67268C0.0312907 1.52591 1.18363e-09 1.3686 0 1.20973C-1.18363e-09 1.05087 0.0312907 0.893559 0.0920855 0.746788C0.15288 0.600016 0.241988 0.466656 0.354322 0.354322C0.466656 0.241988 0.600016 0.15288 0.746788 0.0920855C0.893559 0.0312907 1.05087 -1.18363e-09 1.20973 0C1.3686 1.18363e-09 1.52591 0.0312907 1.67268 0.0920855C1.81945 0.15288 1.95281 0.241988 2.06514 0.354322L14.5 12.7916L26.9349 0.354322C27.0472 0.241988 27.1806 0.15288 27.3273 0.0920855C27.4741 0.0312907 27.6314 0 27.7903 0C27.9491 0 28.1064 0.0312907 28.2532 0.0920855C28.4 0.15288 28.5333 0.241988 28.6457 0.354322C28.758 0.466656 28.8471 0.600016 28.9079 0.746788C28.9687 0.893559 29 1.05087 29 1.20973C29 1.3686 28.9687 1.52591 28.9079 1.67268C28.8471 1.81945 28.758 1.95281 28.6457 2.06514L16.2084 14.5L28.6457 26.9349C28.758 27.0472 28.8471 27.1806 28.9079 27.3273C28.9687 27.4741 29 27.6314 29 27.7903C29 27.9491 28.9687 28.1064 28.9079 28.2532C28.8471 28.4 28.758 28.5333 28.6457 28.6457C28.5333 28.758 28.4 28.8471 28.2532 28.9079C28.1064 28.9687 27.9491 29 27.7903 29C27.6314 29 27.4741 28.9687 27.3273 28.9079C27.1806 28.8471 27.0472 28.758 26.9349 28.6457L14.5 16.2084L2.06514 28.6457C1.95281 28.758 1.81945 28.8471 1.67268 28.9079C1.52591 28.9687 1.3686 29 1.20973 29C1.05087 29 0.893559 28.9687 0.746788 28.9079C0.600016 28.8471 0.466656 28.758 0.354322 28.6457C0.241988 28.5333 0.15288 28.4 0.0920855 28.2532C0.0312907 28.1064 0 27.9491 0 27.7903C0 27.6314 0.0312907 27.4741 0.0920855 27.3273C0.15288 27.1806 0.241988 27.0472 0.354322 26.9349L12.7916 14.5L0.354322 2.06514Z" fill="#FAF8F8"/>
</svg>
