<svg width="32" height="27" viewBox="0 0 32 27" fill="none" xmlns="http://www.w3.org/2000/svg">
<path fill-rule="evenodd" clip-rule="evenodd" d="M0 25.5C0 25.1022 0.153247 24.7206 0.426027 24.4393C0.698807 24.158 1.06878 24 1.45455 24H30.5455C30.9312 24 31.3012 24.158 31.574 24.4393C31.8468 24.7206 32 25.1022 32 25.5C32 25.8978 31.8468 26.2794 31.574 26.5607C31.3012 26.842 30.9312 27 30.5455 27H1.45455C1.06878 27 0.698807 26.842 0.426027 26.5607C0.153247 26.2794 0 25.8978 0 25.5ZM0 13.5C0 13.1022 0.153247 12.7206 0.426027 12.4393C0.698807 12.158 1.06878 12 1.45455 12H30.5455C30.9312 12 31.3012 12.158 31.574 12.4393C31.8468 12.7206 32 13.1022 32 13.5C32 13.8978 31.8468 14.2794 31.574 14.5607C31.3012 14.842 30.9312 15 30.5455 15H1.45455C1.06878 15 0.698807 14.842 0.426027 14.5607C0.153247 14.2794 0 13.8978 0 13.5ZM0 1.5C0 1.10218 0.153247 0.720645 0.426027 0.43934C0.698807 0.158036 1.06878 0 1.45455 0H30.5455C30.9312 0 31.3012 0.158036 31.574 0.43934C31.8468 0.720645 32 1.10218 32 1.5C32 1.89782 31.8468 2.27936 31.574 2.56066C31.3012 2.84196 30.9312 3 30.5455 3H1.45455C1.06878 3 0.698807 2.84196 0.426027 2.56066C0.153247 2.27936 0 1.89782 0 1.5Z" fill="#FAF8F8"/>
</svg>
