<?xml version="1.0" encoding="utf-8"?>
<!-- Generator: Adobe Illustrator 27.1.1, SVG Export Plug-In . SVG Version: 6.00 Build 0)  -->
<svg version="1.1" id="logo" xmlns="http://www.w3.org/2000/svg" xmlns:xlink="http://www.w3.org/1999/xlink" x="0px" y="0px"
	 viewBox="0 0 304 325" style="enable-background:new 0 0 304 325;" xml:space="preserve">
<style type="text/css">
	.st0{fill:#1C538E;}
	.st1{fill:#002347;}
	.st2{fill:#15477C;}
	.st3{display:none;}
	.st4{display:inline;fill:#FFFFFF;}
	.st5{fill:#FAF8F8;}
	.st6{display:none;fill:#FFFFFF;}
</style>
<g>
	<path class="st0" d="M289.99,99.2c0-5.22-1.12-9.82-3.37-13.78c-2.22-3.89-5.53-7.15-9.99-9.73
		C239.88,54.5,203.1,33.38,166.37,12.17c-9.9-5.72-19.5-5.51-29.33,0.29c-14.62,8.62-87.85,50.57-109.67,63.21
		c-8.99,5.2-13.36,13.16-13.36,23.51C14,141.8,14.01,184.4,14,227.01c0,5.1,1.07,9.62,3.23,13.52c2.22,4.01,5.58,7.36,10.14,9.99
		c21.82,12.64,95.05,54.59,109.67,63.21c9.83,5.8,19.43,6.01,29.34,0.29c36.73-21.21,73.51-42.33,110.26-63.52
		c4.55-2.63,7.92-5.99,10.14-9.99c2.15-3.9,3.23-8.42,3.23-13.52C290,227,290,141.81,289.99,99.2"/>
	<path class="st1" d="M152.42,162.68l-135.2,77.84c2.22,4.01,5.58,7.36,10.14,9.99c21.82,12.64,95.05,54.59,109.67,63.21
		c9.83,5.8,19.43,6.01,29.34,0.29c36.73-21.21,73.51-42.33,110.26-63.52c4.55-2.63,7.92-5.99,10.14-9.99L152.42,162.68z"/>
	<path class="st2" d="M289.99,99.2c0-5.22-1.12-9.82-3.37-13.78l-134.19,77.27l134.35,77.83c2.15-3.9,3.22-8.42,3.23-13.52
		C290,227,290,141.81,289.99,99.2"/>
	<g class="st3">
		<path class="st4" d="M232.05,133.56v14.54h14.54v-14.54h7.27v14.54h14.54v7.27h-14.54v14.54h14.54v7.39h-14.54v14.54h-7.27V177.3
			h-14.54v14.54h-7.27v-14.66h-14.54v-7.27h14.54v-14.54h-14.54v-7.27h14.54v-14.54L232.05,133.56z M246.58,155.37h-14.54v14.54
			h14.54V155.37z"/>
		<path class="st4" d="M152.72,60.51c37.94,0,71.07,20.61,88.82,51.24l-0.17-0.29l-44.64,25.7c-8.8-14.89-24.92-24.94-43.42-25.15
			l-0.58,0c-28.21,0-51.07,22.87-51.07,51.07c-0.01,8.89,2.31,17.63,6.74,25.34c8.8,15.37,25.35,25.74,44.34,25.74
			c19.1,0,35.75-10.5,44.51-26.03l-0.21,0.37l44.58,25.82c-17.55,30.37-50.22,50.91-87.73,51.32l-1.14,0.01
			c-38.06,0-71.29-20.73-88.99-51.53c-8.64-15.03-13.58-32.46-13.58-51.04C50.15,106.43,96.07,60.51,152.72,60.51L152.72,60.51z"/>
	</g>
</g>
<g>
	<path class="st5" d="M79.07,262.03V63.5h65.64c36.97,0,64.67,8.05,83.11,24.16c18.43,16.11,27.65,40.31,27.65,72.61
		c0,30.73-10.19,55.38-30.56,73.93s-47.5,27.83-81.36,27.83H79.07z M114.44,92.02v141.63h27.36c23.96,0,42.69-6.41,56.18-19.24
		c13.49-12.83,20.23-30.69,20.23-53.58c0-22.24-6.43-39.27-19.29-51.09c-12.86-11.81-31.71-17.72-56.54-17.72H114.44z"/>
</g>
<path class="st2" d="M183,145l92-53c8.14-0.78,12.4,12.41,12,18c-3.11,43.5-2.49,44.74-3,58c-1.09,28.61-4.34,42.39-12,64
	c-15.42-8.93-62.58-36.07-78-45l-3-35L183,145z"/>
<path class="st6" d="M1055,395"/>
<path class="st6" d="M1061,396"/>
<path class="st6" d="M1057,394"/>
<g>
	<path class="st5" d="M264.06,142.5h-18.55v51.47h-10.94V142.5h-18.5v-8.63h47.98V142.5z"/>
</g>
<g>
</g>
<g>
</g>
<g>
</g>
<g>
</g>
<g>
</g>
<g>
</g>
<g>
</g>
<g>
</g>
<g>
</g>
<g>
</g>
<g>
</g>
<g>
</g>
<g>
</g>
<g>
</g>
<g>
</g>
</svg>
